<?xml version="1.0" encoding="utf-8"?>
<!-- Generator: Circuit Diagram, cdlibrary.dll 1.0.0.0 -->
<!DOCTYPE svg PUBLIC "-//W3C//DTD SVG 1.1//EN" "http://www.w3.org/Graphics/SVG/1.1/DTD/svg11.dtd">
<svg version="1.1" width="320" height="420" xmlns="http://www.w3.org/2000/svg">
	<text x="150" y="170" style="font-family:Arial;font-size:11px;text-anchor:start" dy=".3em">T_1</text>
	<text x="80" y="280" style="font-family:Arial;font-size:11px;text-anchor:start" dy=".3em">B</text>
	<line x1="70" y1="350" x2="70" y2="215" style="stroke:rgb(0, 0, 0);stroke-linecap:square;stroke-width:2" />
	<path d="M 70,215 L 73,215 L 70,210 L 67,215 L 70,215" style="fill-opacity:1;fill:rgb(0, 0, 0);stroke:rgb(0, 0, 0);stroke-width:2" />
	<text x="62" y="280" style="font-family:Arial;font-size:11px;text-anchor:end" dy=".3em">V_e_1</text>
	<text x="72" y="300" style="font-family:Arial;font-size:12px;text-anchor:end" dy=".3em"></text>
	<line x1="83" y1="300" x2="150" y2="300" style="stroke:rgb(0, 0, 0);stroke-linecap:square;stroke-width:2" />
	<ellipse cx="80" cy="300" rx="3" ry="3" style="fill-opacity:0;fill:rgb(0, 0, 0);stroke:rgb(0, 0, 0);stroke-width:2" />
	<line x1="190" y1="230" x2="190" y2="287" style="stroke:rgb(0, 0, 0);stroke-linecap:square;stroke-width:2" />
	<line x1="190" y1="313" x2="190" y2="360" style="stroke:rgb(0, 0, 0);stroke-linecap:square;stroke-width:2" />
	<line x1="150" y1="300" x2="176" y2="300" style="stroke:rgb(0, 0, 0);stroke-linecap:square;stroke-width:2" />
	<line x1="175.5" y1="292" x2="175.5" y2="308" style="stroke:rgb(0, 0, 0);stroke-linecap:square;stroke-width:3" />
	<line x1="190" y1="287" x2="175.5" y2="296" style="stroke:rgb(0, 0, 0);stroke-linecap:square;stroke-width:2" />
	<line x1="175.5" y1="304" x2="190" y2="313" style="stroke:rgb(0, 0, 0);stroke-linecap:square;stroke-width:2" />
	<ellipse cx="180" cy="300" rx="16" ry="16" style="fill-opacity:0;fill:rgb(0, 0, 0);stroke:rgb(0, 0, 0);stroke-width:2" />
	<path d="M 182,307 L 186,305 L 187,312 L 181,308 L 183,307" style="fill-opacity:1;fill:rgb(0, 0, 0);stroke:rgb(0, 0, 0);stroke-width:2" />
	<line x1="190" y1="130" x2="190" y2="187" style="stroke:rgb(0, 0, 0);stroke-linecap:square;stroke-width:2" />
	<line x1="190" y1="213" x2="190" y2="260" style="stroke:rgb(0, 0, 0);stroke-linecap:square;stroke-width:2" />
	<line x1="150" y1="200" x2="176" y2="200" style="stroke:rgb(0, 0, 0);stroke-linecap:square;stroke-width:2" />
	<line x1="175.5" y1="192" x2="175.5" y2="208" style="stroke:rgb(0, 0, 0);stroke-linecap:square;stroke-width:3" />
	<line x1="190" y1="187" x2="175.5" y2="196" style="stroke:rgb(0, 0, 0);stroke-linecap:square;stroke-width:2" />
	<line x1="175.5" y1="204" x2="190" y2="213" style="stroke:rgb(0, 0, 0);stroke-linecap:square;stroke-width:2" />
	<ellipse cx="180" cy="200" rx="16" ry="16" style="fill-opacity:0;fill:rgb(0, 0, 0);stroke:rgb(0, 0, 0);stroke-width:2" />
	<path d="M 182,207 L 186,205 L 187,212 L 181,208 L 183,207" style="fill-opacity:1;fill:rgb(0, 0, 0);stroke:rgb(0, 0, 0);stroke-width:2" />
	<text x="280" y="150" style="font-family:Arial;font-size:11px;text-anchor:start" dy=".3em">S</text>
	<text x="278" y="160" style="font-family:Arial;font-size:12px;text-anchor:start" dy=".3em"></text>
	<line x1="190" y1="160" x2="267" y2="160" style="stroke:rgb(0, 0, 0);stroke-linecap:square;stroke-width:2" />
	<ellipse cx="270" cy="160" rx="3" ry="3" style="fill-opacity:0;fill:rgb(0, 0, 0);stroke:rgb(0, 0, 0);stroke-width:2" />
	<text x="80" y="180" style="font-family:Arial;font-size:11px;text-anchor:start" dy=".3em">A</text>
	<text x="72" y="200" style="font-family:Arial;font-size:12px;text-anchor:end" dy=".3em"></text>
	<line x1="83" y1="200" x2="150" y2="200" style="stroke:rgb(0, 0, 0);stroke-linecap:square;stroke-width:2" />
	<ellipse cx="80" cy="200" rx="3" ry="3" style="fill-opacity:0;fill:rgb(0, 0, 0);stroke:rgb(0, 0, 0);stroke-width:2" />
	<line x1="80" y1="350" x2="80" y2="315" style="stroke:rgb(0, 0, 0);stroke-linecap:square;stroke-width:2" />
	<path d="M 80,315 L 77,315 L 80,310 L 83,315 L 80,315" style="fill-opacity:1;fill:rgb(0, 0, 0);stroke:rgb(0, 0, 0);stroke-width:2" />
	<text x="88" y="330" style="font-family:Arial;font-size:11px;text-anchor:start" dy=".3em">V_e_2</text>
	<line x1="270" y1="350" x2="270" y2="175" style="stroke:rgb(0, 0, 0);stroke-linecap:square;stroke-width:2" />
	<path d="M 270,175 L 273,175 L 270,170 L 267,175 L 270,175" style="fill-opacity:1;fill:rgb(0, 0, 0);stroke:rgb(0, 0, 0);stroke-width:2" />
	<text x="262" y="260" style="font-family:Arial;font-size:11px;text-anchor:end" dy=".3em">V_s</text>
	<text x="210" y="90" style="font-family:Arial;font-size:11px;text-anchor:start" dy=".3em">R_1</text>
	<text x="150" y="270" style="font-family:Arial;font-size:11px;text-anchor:start" dy=".3em">T_2</text>
	<line x1="190" y1="360" x2="190" y2="388" style="stroke:rgb(0, 0, 0);stroke-linecap:square;stroke-width:2" />
	<line x1="182" y1="388" x2="198" y2="388" style="stroke:rgb(0, 0, 0);stroke-linecap:square;stroke-width:2" />
	<line x1="185" y1="394" x2="195" y2="394" style="stroke:rgb(0, 0, 0);stroke-linecap:square;stroke-width:2" />
	<line x1="188" y1="400" x2="192" y2="400" style="stroke:rgb(0, 0, 0);stroke-linecap:square;stroke-width:2" />
	<line x1="70" y1="360" x2="270" y2="360" style="stroke:rgb(0, 0, 0);stroke-linecap:square;stroke-width:2" />
	<line x1="190" y1="30" x2="190" y2="65" style="stroke:rgb(0, 0, 0);stroke-linecap:square;stroke-width:2" />
	<rect x="182" y="65" width="16" height="40" style="fill-opacity:0;stroke:rgb(0, 0, 0);stroke-width:2" />
	<line x1="190" y1="105" x2="190" y2="140" style="stroke:rgb(0, 0, 0);stroke-linecap:square;stroke-width:2" />
	<text x="176" y="85" style="font-family:Arial;font-size:11px;text-anchor:end" dy=".3em">10 kΩ</text>
	<ellipse cx="190" cy="360" rx="2" ry="2" style="fill-opacity:1;fill:rgb(0, 0, 0);stroke:rgb(0, 0, 0);stroke-width:2" />
	<ellipse cx="190" cy="160" rx="2" ry="2" style="fill-opacity:1;fill:rgb(0, 0, 0);stroke:rgb(0, 0, 0);stroke-width:2" />
</svg>