<?xml version="1.0" encoding="utf-8"?>
<!-- Generator: Circuit Diagram, cdlibrary.dll 1.0.0.0 -->
<!DOCTYPE svg PUBLIC "-//W3C//DTD SVG 1.1//EN" "http://www.w3.org/Graphics/SVG/1.1/DTD/svg11.dtd">
<svg version="1.1" width="280" height="320" xmlns="http://www.w3.org/2000/svg">
	<line x1="150" y1="130" x2="150" y2="187" style="stroke:rgb(0, 0, 0);stroke-linecap:square;stroke-width:2" />
	<line x1="150" y1="213" x2="150" y2="260" style="stroke:rgb(0, 0, 0);stroke-linecap:square;stroke-width:2" />
	<line x1="110" y1="200" x2="136" y2="200" style="stroke:rgb(0, 0, 0);stroke-linecap:square;stroke-width:2" />
	<line x1="135.5" y1="192" x2="135.5" y2="208" style="stroke:rgb(0, 0, 0);stroke-linecap:square;stroke-width:3" />
	<line x1="150" y1="187" x2="135.5" y2="196" style="stroke:rgb(0, 0, 0);stroke-linecap:square;stroke-width:2" />
	<line x1="135.5" y1="204" x2="150" y2="213" style="stroke:rgb(0, 0, 0);stroke-linecap:square;stroke-width:2" />
	<ellipse cx="140" cy="200" rx="16" ry="16" style="fill-opacity:0;fill:rgb(0, 0, 0);stroke:rgb(0, 0, 0);stroke-width:2" />
	<path d="M 142,207 L 146,205 L 147,212 L 141,208 L 143,207" style="fill-opacity:1;fill:rgb(0, 0, 0);stroke:rgb(0, 0, 0);stroke-width:2" />
	<text x="240" y="150" style="font-family:Arial;font-size:11px;text-anchor:start" dy=".3em">S</text>
	<text x="238" y="160" style="font-family:Arial;font-size:12px;text-anchor:start" dy=".3em"></text>
	<line x1="150" y1="160" x2="227" y2="160" style="stroke:rgb(0, 0, 0);stroke-linecap:square;stroke-width:2" />
	<ellipse cx="230" cy="160" rx="3" ry="3" style="fill-opacity:0;fill:rgb(0, 0, 0);stroke:rgb(0, 0, 0);stroke-width:2" />
	<text x="40" y="180" style="font-family:Arial;font-size:11px;text-anchor:start" dy=".3em">A</text>
	<text x="32" y="200" style="font-family:Arial;font-size:12px;text-anchor:end" dy=".3em"></text>
	<line x1="43" y1="200" x2="110" y2="200" style="stroke:rgb(0, 0, 0);stroke-linecap:square;stroke-width:2" />
	<ellipse cx="40" cy="200" rx="3" ry="3" style="fill-opacity:0;fill:rgb(0, 0, 0);stroke:rgb(0, 0, 0);stroke-width:2" />
	<line x1="40" y1="250" x2="40" y2="215" style="stroke:rgb(0, 0, 0);stroke-linecap:square;stroke-width:2" />
	<path d="M 40,215 L 37,215 L 40,210 L 43,215 L 40,215" style="fill-opacity:1;fill:rgb(0, 0, 0);stroke:rgb(0, 0, 0);stroke-width:2" />
	<text x="48" y="230" style="font-family:Arial;font-size:11px;text-anchor:start" dy=".3em">V_e</text>
	<line x1="230" y1="250" x2="230" y2="175" style="stroke:rgb(0, 0, 0);stroke-linecap:square;stroke-width:2" />
	<path d="M 230,175 L 233,175 L 230,170 L 227,175 L 230,175" style="fill-opacity:1;fill:rgb(0, 0, 0);stroke:rgb(0, 0, 0);stroke-width:2" />
	<text x="222" y="210" style="font-family:Arial;font-size:11px;text-anchor:end" dy=".3em">V_s</text>
	<text x="170" y="90" style="font-family:Arial;font-size:11px;text-anchor:start" dy=".3em">R_1</text>
	<text x="120" y="170" style="font-family:Arial;font-size:11px;text-anchor:start" dy=".3em">T</text>
	<line x1="150" y1="260" x2="150" y2="288" style="stroke:rgb(0, 0, 0);stroke-linecap:square;stroke-width:2" />
	<line x1="142" y1="288" x2="158" y2="288" style="stroke:rgb(0, 0, 0);stroke-linecap:square;stroke-width:2" />
	<line x1="145" y1="294" x2="155" y2="294" style="stroke:rgb(0, 0, 0);stroke-linecap:square;stroke-width:2" />
	<line x1="148" y1="300" x2="152" y2="300" style="stroke:rgb(0, 0, 0);stroke-linecap:square;stroke-width:2" />
	<line x1="40" y1="260" x2="230" y2="260" style="stroke:rgb(0, 0, 0);stroke-linecap:square;stroke-width:2" />
	<line x1="150" y1="30" x2="150" y2="65" style="stroke:rgb(0, 0, 0);stroke-linecap:square;stroke-width:2" />
	<rect x="142" y="65" width="16" height="40" style="fill-opacity:0;stroke:rgb(0, 0, 0);stroke-width:2" />
	<line x1="150" y1="105" x2="150" y2="140" style="stroke:rgb(0, 0, 0);stroke-linecap:square;stroke-width:2" />
	<text x="136" y="85" style="font-family:Arial;font-size:11px;text-anchor:end" dy=".3em">10 kΩ</text>
	<ellipse cx="150" cy="160" rx="2" ry="2" style="fill-opacity:1;fill:rgb(0, 0, 0);stroke:rgb(0, 0, 0);stroke-width:2" />
	<ellipse cx="150" cy="260" rx="2" ry="2" style="fill-opacity:1;fill:rgb(0, 0, 0);stroke:rgb(0, 0, 0);stroke-width:2" />
</svg>